<svg xmlns="http://www.w3.org/2000/svg" xmlns:xlink="http://www.w3.org/1999/xlink" xml:space="preserve" id="Layer_1" x="0" y="0" style="enable-background:new 0 0 307.96 54.87" version="1.1" viewBox="0 0 307.96 54.87"><style>.st0{fill:#005492}</style><path d="M52.65 34.53H60c.1 3 2.6 4.75 6.85 4.75 4.1 0 6.55-1.55 6.55-4.15 0-2.5-2.4-3.55-7.45-4.1-8.95-1-12.8-4.9-12.8-10.8 0-6.1 5.35-10.3 13.4-10.3 8 0 13.2 4.4 13.45 10.95h-7.2c-.25-2.7-2.35-4.35-6.25-4.35-3.8 0-5.95 1.55-5.95 3.85 0 2.5 1.85 3.55 6.65 4.1 9.7 1.05 13.75 4.7 13.75 10.7 0 6.45-5.55 10.75-14.05 10.75-8.7 0-14.1-4.4-14.3-11.4zM108.95 38.68v6.75H87v-35h21.5v6.75H94.45v7.15h13.2v6.65h-13.2v7.7h14.5zM148.55 44.93v.5h-8.1l-2.6-5.75H123.1l-2.6 5.75h-8.05v-.5L129 10.13h3l16.55 34.8zm-22.5-11.85h8.8l-4.4-10.9-4.4 10.9zM179.9 35.53c0 6.2-4.45 9.9-11.9 9.9h-15.6v-35h14.55c6.85 0 11.4 3.9 11.4 9.7 0 3.05-1.4 5.6-3.9 7.1 3.45 1.4 5.45 4.35 5.45 8.3zm-13.45-18.65h-6.6v7.75h6.6c2.7 0 4.35-1.45 4.35-3.85 0-2.4-1.65-3.9-4.35-3.9zm5.85 17.95c0-2.6-1.8-4.05-5.05-4.05h-7.4v8.15h7.4c3.2 0 5.05-1.5 5.05-4.1zM215.55 45.18v.25h-8.4L200 33.98h-6.4v11.45h-7.5v-35h14.75c7.6 0 12.75 4.75 12.75 11.8 0 4.75-2.4 8.5-6.4 10.4l8.35 12.55zm-21.95-17.6h6.9c3.45 0 5.5-2 5.5-5.35 0-3.3-2.05-5.3-5.5-5.3h-6.9v10.65zM221 10.43h7.5v35.01H221V10.43zM234.64 27.93c0-10.6 7.3-18 17.5-18 8.65 0 14.8 4.7 16.8 12.45h-7.5c-1.65-3.35-4.85-5.35-9-5.35-6 0-10.15 4.35-10.15 10.9s4.1 10.85 10.15 10.85c4.45 0 7.8-2.25 9.2-6h7.5c-1.75 8.2-8.1 13.15-17 13.15-10.29 0-17.5-7.45-17.5-18zM303.05 44.98v.45h-8.35l-7.95-14.5c-.9.1-1.8.15-2.8.15h-1.85v14.35h-7.5v-35h7.5v13.95h1.65c7.75 0 9.25-5.4 9.25-13.95h7.5c.05 8.25-1.75 14.7-6.7 18.1l9.25 16.45z" class="st0"/><defs><path id="SVGID_1_" d="M7.96-10.75h361.06V60.4H7.96z"/></defs><clipPath id="SVGID_00000044873410250028098210000002569264140275736975_"><use xlink:href="#SVGID_1_" style="overflow:visible"/></clipPath><path d="M7.96 14.71V33s7.2 5.8 15.27 3.73c3.02-.77 5.92-3.41 6.56-7.27.25-1.52-.26-2.26-.75-2.43-.61-.21-1.37.55-1.8 1.03-1.14 1.28-1.55 1.98-2.72 2.72-2.64 1.68-4.13.25-4.81-.44-1.51-1.54-1.68-5.2.72-8.88 2.4-3.68 8.64-6.88 17.11-4.2 4.2 1.33 5.52 2.79 5.52 2.79l-.03-7.7c0-1.03-.87-1.86-1.96-1.92H9.91c-1.09.06-1.96.89-1.96 1.92l.01 2.36z" style="clip-path:url(#SVGID_00000044873410250028098210000002569264140275736975_);fill:#52b09f"/><path d="M43.07 41.14V22.86s-7.2-5.8-15.27-3.73c-3.02.77-5.92 3.41-6.56 7.27-.25 1.52.26 2.26.75 2.43.61.21 1.37-.55 1.8-1.03 1.14-1.28 1.55-1.98 2.72-2.72 2.64-1.68 4.13-.25 4.81.44 1.51 1.54 1.68 5.2-.72 8.88-2.4 3.68-8.64 6.88-17.11 4.2-4.2-1.33-5.52-2.79-5.52-2.79l.03 7.7c0 1.03.87 1.86 1.96 1.92h31.16c1.09-.06 1.96-.89 1.96-1.92l-.01-2.37z" style="clip-path:url(#SVGID_00000044873410250028098210000002569264140275736975_);fill:#005492"/></svg>